<svg xmlns="http://www.w3.org/2000/svg" fill="#0078FF" viewBox="0 0 91 69.85"><path d="M85.47 51.132c0 7.838-16.525 13.79-39.97 13.79S5.53 58.97 5.53 51.131c0-1.353.503-2.645 1.435-3.865-1.61-.967-2.997-2-4.16-3.1C.996 46.257 0 48.59 0 51.132c0 11.533 20.369 18.717 45.5 18.717S91 62.662 91 51.132c0-2.542-.995-4.875-2.806-6.965-1.176 1.113-2.585 2.157-4.219 3.133.969 1.21 1.496 2.492 1.496 3.832Z"/><path d="M85.47 34.82c0 7.838-16.525 13.79-39.97 13.79S5.53 42.657 5.53 34.82c0-1.352.503-2.645 1.435-3.865-1.61-.966-2.997-2-4.16-3.1C.996 29.945 0 32.278 0 34.82c0 11.533 20.369 18.72 45.5 18.72S91 46.354 91 34.82c0-2.542-.995-4.875-2.806-6.965-1.176 1.113-2.585 2.157-4.219 3.134.969 1.21 1.496 2.492 1.496 3.83Z"/><path d="M59.688 38.202c6.57.831 12.29 2.23 16.663 4.044 2.168-.947 3.89-1.983 5.141-3.067-2.559-1.329-5.555-2.482-8.911-3.439-3.9 1.08-8.24 1.91-12.89 2.462M18.42 35.74c-3.36.957-6.357 2.11-8.912 3.44 1.215 1.053 2.878 2.06 4.956 2.987 4.281-1.795 9.933-3.18 16.602-3.995-4.558-.551-8.816-1.368-12.647-2.432Zm57.932-9.7c2.167-.946 3.889-1.983 5.14-3.066C73.17 18.65 60.15 16.205 45.5 16.205c-14.648 0-27.67 2.446-35.992 6.769 1.215 1.053 2.875 2.063 4.956 2.987 7.107-2.98 17.998-4.825 31.036-4.825s23.554 1.875 30.855 4.905"/><path d="M85.47 18.72c0 7.84-16.525 13.79-39.97 13.79S5.53 26.556 5.53 18.72c0-7.841 16.522-13.792 39.967-13.792s39.967 5.95 39.967 13.793h.007Zm5.53 0C90.997 7.185 70.628 0 45.5 0S0 7.184 0 18.72c0 11.53 20.369 18.718 45.5 18.718S91 30.251 91 18.721Z"/></svg>